<?xml version="1.0" encoding="utf-8"?>
<!-- Generator: Adobe Illustrator 16.0.0, SVG Export Plug-In . SVG Version: 6.00 Build 0)  -->
<!DOCTYPE svg PUBLIC "-//W3C//DTD SVG 1.0//EN" "http://www.w3.org/TR/2001/REC-SVG-20010904/DTD/svg10.dtd">
<svg version="1.0" id="Layer_1" xmlns="http://www.w3.org/2000/svg" xmlns:xlink="http://www.w3.org/1999/xlink" x="0px" y="0px"
	 width="20px" height="20px" viewBox="0 0 20 20" enable-background="new 0 0 20 20" xml:space="preserve">
<g>
	<g>
		<path fill="#004CD2" d="M10,0C4.486,0,0,4.486,0,10c0,5.513,4.486,10,10,10c5.515,0,10-4.487,10-10C20,4.486,15.515,0,10,0L10,0z
			 M10,18.688c-4.791,0-8.688-3.898-8.688-8.688S5.209,1.312,10,1.312S18.688,5.21,18.688,10S14.791,18.688,10,18.688L10,18.688z
			 M10,18.688"/>
		<path fill="#004CD2" d="M13.62,6.726l-5.156,5.156L6.38,9.798c-0.257-0.256-0.671-0.256-0.927,0c-0.257,0.257-0.257,0.672,0,0.93
			l2.548,2.547c0.128,0.128,0.295,0.191,0.463,0.191s0.337-0.063,0.464-0.192c0.001,0,0.002,0,0.002-0.002l5.618-5.617
			c0.256-0.257,0.256-0.673,0-0.929S13.877,6.47,13.62,6.726L13.62,6.726z M13.62,6.726"/>
	</g>
</g>
</svg>
