<?xml version="1.0" encoding="utf-8"?>
<!-- Generator: Adobe Illustrator 16.0.0, SVG Export Plug-In . SVG Version: 6.00 Build 0)  -->
<!DOCTYPE svg PUBLIC "-//W3C//DTD SVG 1.0//EN" "http://www.w3.org/TR/2001/REC-SVG-20010904/DTD/svg10.dtd">
<svg version="1.0" id="Layer_1" xmlns="http://www.w3.org/2000/svg" xmlns:xlink="http://www.w3.org/1999/xlink" x="0px" y="0px"
	 width="45px" height="45px" viewBox="0 0 200 200" enable-background="new 0 0 200 200" xml:space="preserve">
<g>
	<g>
		<g>
			<path fill="#FFD712" d="M73.861,80.144c-0.109-0.33-0.396-0.569-0.744-0.624l-10.303-1.473l-4.633-9.323
				c-0.16-0.311-0.477-0.513-0.826-0.513c-0.345,0-0.663,0.196-0.82,0.519l-4.577,9.352l-10.309,1.526
				c-0.348,0.05-0.63,0.292-0.74,0.625c-0.109,0.328-0.012,0.691,0.237,0.94l7.474,7.245l-1.735,10.27
				c-0.053,0.342,0.081,0.694,0.371,0.891c0.153,0.12,0.345,0.176,0.536,0.176c0.148,0,0.295-0.034,0.427-0.105l9.207-4.874
				l9.226,4.832c0.132,0.067,0.28,0.095,0.417,0.095c0.502,0,0.919-0.412,0.919-0.91c0-0.077-0.012-0.147-0.029-0.217l-1.775-10.2
				l7.436-7.288C73.881,80.844,73.967,80.479,73.861,80.144L73.861,80.144z M64.564,87.402"/>
			<path fill="#FFD712" d="M116.852,80.158c-0.107-0.331-0.39-0.565-0.737-0.623l-10.306-1.465l-4.637-9.33
				c-0.155-0.312-0.472-0.508-0.818-0.508c-0.345,0-0.671,0.195-0.821,0.517l-4.577,9.344L84.645,79.62
				c-0.35,0.055-0.628,0.293-0.74,0.631c-0.112,0.328-0.014,0.687,0.239,0.934l7.474,7.252l-1.732,10.264
				c-0.062,0.35,0.081,0.694,0.366,0.896c0.157,0.12,0.345,0.178,0.538,0.178c0.142,0,0.285-0.037,0.422-0.111l9.207-4.875
				l9.226,4.832c0.14,0.066,0.275,0.099,0.424,0.099c0.501,0,0.915-0.412,0.915-0.913c0-0.077-0.003-0.14-0.031-0.206l-1.776-10.208
				l7.44-7.287C116.881,80.862,116.964,80.493,116.852,80.158L116.852,80.158z M107.557,87.421"/>
			<path fill="#FFD712" d="M159.854,80.177c-0.11-0.335-0.397-0.569-0.737-0.618l-10.315-1.471l-4.632-9.329
				c-0.155-0.312-0.475-0.514-0.821-0.514c-0.345,0-0.663,0.202-0.821,0.514l-4.579,9.359l-10.309,1.523
				c-0.347,0.053-0.63,0.285-0.737,0.627c-0.11,0.326-0.02,0.694,0.239,0.937l7.47,7.249l-1.736,10.264
				c-0.05,0.351,0.084,0.691,0.371,0.893c0.153,0.121,0.348,0.176,0.531,0.176c0.153,0,0.295-0.034,0.434-0.105l9.205-4.868
				l9.226,4.82c0.135,0.067,0.278,0.104,0.417,0.104c0.508,0,0.919-0.416,0.919-0.919c0-0.063-0.009-0.138-0.026-0.202
				l-1.778-10.211l7.436-7.287C159.871,80.881,159.957,80.512,159.854,80.177L159.854,80.177z M150.556,87.441"/>
			<path fill="#FFD712" d="M93.352,121.427c-0.109-0.332-0.395-0.572-0.741-0.618l-10.307-1.471l-4.634-9.327
				c-0.158-0.315-0.475-0.512-0.824-0.512c-0.34,0-0.663,0.196-0.816,0.512l-4.584,9.36l-10.309,1.518
				c-0.342,0.053-0.625,0.292-0.739,0.628c-0.103,0.33-0.01,0.693,0.244,0.938l7.472,7.253l-1.731,10.261
				c-0.064,0.355,0.079,0.694,0.364,0.896c0.153,0.117,0.343,0.176,0.536,0.176c0.146,0,0.29-0.031,0.429-0.105l9.202-4.871
				l9.233,4.825c0.132,0.065,0.272,0.104,0.416,0.104c0.503,0,0.912-0.429,0.912-0.919c0-0.076-0.005-0.14-0.026-0.206
				l-1.778-10.208l7.44-7.288C93.376,122.124,93.462,121.761,93.352,121.427L93.352,121.427z M84.054,128.688"/>
			<path fill="#FFD712" d="M136.35,121.444c-0.11-0.329-0.397-0.564-0.742-0.622l-10.309-1.47l-4.635-9.328
				c-0.153-0.309-0.469-0.514-0.818-0.514s-0.665,0.205-0.823,0.52l-4.582,9.351l-10.311,1.528
				c-0.345,0.051-0.625,0.286-0.732,0.621c-0.11,0.332-0.013,0.701,0.238,0.943l7.477,7.244l-1.74,10.272
				c-0.055,0.344,0.086,0.696,0.373,0.893c0.153,0.12,0.343,0.173,0.534,0.173c0.148,0,0.297-0.033,0.426-0.101l9.202-4.875
				l9.227,4.828c0.137,0.064,0.285,0.104,0.422,0.104c0.502,0,0.919-0.422,0.919-0.925c0-0.066-0.003-0.139-0.028-0.209
				l-1.776-10.204l7.438-7.288C136.366,122.139,136.452,121.778,136.35,121.444L136.35,121.444z M127.054,128.713"/>
			<path fill="#FFFFFF" d="M128.67,129.675l7.438-7.288c0.259-0.248,0.345-0.608,0.242-0.942l0,0
				c-0.11-0.329-0.397-0.564-0.742-0.622l-10.309-1.47 M127.054,128.713"/>
		</g>
	</g>
	<path fill="none" stroke="#004CD2" stroke-width="3" stroke-miterlimit="10" d="M73.861,80.144
		c-0.109-0.33-0.396-0.569-0.744-0.624l-10.303-1.473l-4.633-9.323c-0.16-0.311-0.477-0.513-0.826-0.513
		c-0.345,0-0.663,0.196-0.82,0.519l-4.577,9.352l-10.309,1.526c-0.348,0.05-0.63,0.292-0.74,0.625
		c-0.109,0.328-0.012,0.691,0.237,0.94l7.474,7.245l-1.735,10.27c-0.053,0.342,0.081,0.694,0.371,0.891
		c0.153,0.12,0.345,0.176,0.536,0.176c0.148,0,0.295-0.034,0.427-0.105l9.207-4.874l9.226,4.832c0.132,0.067,0.28,0.095,0.417,0.095
		c0.502,0,0.919-0.412,0.919-0.91c0-0.077-0.012-0.147-0.029-0.217l-1.775-10.2l7.436-7.288
		C73.881,80.844,73.967,80.479,73.861,80.144L73.861,80.144z M64.564,87.402"/>
	<path fill="none" stroke="#004CD2" stroke-width="3" stroke-miterlimit="10" d="M116.854,80.144
		c-0.11-0.33-0.397-0.569-0.745-0.624l-10.303-1.473l-4.633-9.323c-0.16-0.311-0.477-0.513-0.825-0.513
		c-0.345,0-0.663,0.196-0.821,0.519l-4.577,9.352l-10.309,1.526c-0.347,0.05-0.63,0.292-0.739,0.625
		c-0.11,0.328-0.012,0.691,0.236,0.94l7.475,7.245l-1.736,10.27c-0.053,0.342,0.082,0.694,0.371,0.891
		c0.153,0.12,0.345,0.176,0.536,0.176c0.148,0,0.295-0.034,0.427-0.105l9.207-4.874l9.226,4.832c0.132,0.067,0.28,0.095,0.417,0.095
		c0.503,0,0.919-0.412,0.919-0.91c0-0.077-0.012-0.147-0.028-0.217l-1.776-10.2l7.436-7.288
		C116.873,80.844,116.96,80.479,116.854,80.144L116.854,80.144z M107.557,87.402"/>
	<path fill="none" stroke="#004CD2" stroke-width="3" stroke-miterlimit="10" d="M93.356,121.426
		c-0.109-0.329-0.396-0.568-0.744-0.624L82.31,119.33l-4.633-9.323c-0.16-0.311-0.477-0.513-0.826-0.513
		c-0.345,0-0.663,0.196-0.82,0.519l-4.577,9.352l-10.309,1.526c-0.348,0.05-0.63,0.292-0.739,0.625
		c-0.11,0.327-0.013,0.69,0.236,0.939l7.474,7.245l-1.735,10.27c-0.053,0.343,0.081,0.694,0.371,0.891
		c0.153,0.12,0.345,0.176,0.536,0.176c0.148,0,0.295-0.033,0.426-0.105l9.207-4.873l9.227,4.832c0.132,0.066,0.28,0.094,0.417,0.094
		c0.502,0,0.919-0.411,0.919-0.909c0-0.076-0.012-0.147-0.029-0.217l-1.776-10.2l7.436-7.288
		C93.376,122.126,93.462,121.761,93.356,121.426L93.356,121.426z M84.06,128.684"/>
	<path fill="none" stroke="#004CD2" stroke-width="3" stroke-miterlimit="10" d="M136.345,121.426
		c-0.11-0.329-0.397-0.568-0.745-0.624l-10.303-1.472l-4.633-9.323c-0.16-0.311-0.477-0.513-0.825-0.513
		c-0.346,0-0.664,0.196-0.821,0.519l-4.577,9.352l-10.309,1.526c-0.347,0.05-0.63,0.292-0.739,0.625
		c-0.11,0.327-0.013,0.69,0.236,0.939l7.475,7.245l-1.736,10.27c-0.053,0.343,0.082,0.694,0.371,0.891
		c0.153,0.12,0.345,0.176,0.536,0.176c0.148,0,0.295-0.033,0.427-0.105l9.207-4.873l9.226,4.832c0.132,0.066,0.28,0.094,0.417,0.094
		c0.502,0,0.919-0.411,0.919-0.909c0-0.076-0.012-0.147-0.028-0.217l-1.776-10.2l7.436-7.288
		C136.363,122.126,136.45,121.761,136.345,121.426L136.345,121.426z M127.047,128.684"/>
	<path fill="none" stroke="#004CD2" stroke-width="3" stroke-miterlimit="10" d="M159.852,80.144
		c-0.11-0.33-0.397-0.569-0.744-0.624l-10.304-1.473l-4.632-9.323c-0.161-0.311-0.477-0.513-0.826-0.513
		c-0.345,0-0.663,0.196-0.821,0.519l-4.577,9.352l-10.309,1.526c-0.347,0.05-0.629,0.292-0.739,0.625
		c-0.11,0.328-0.012,0.691,0.237,0.94l7.474,7.245l-1.735,10.27c-0.053,0.342,0.081,0.694,0.37,0.891
		c0.153,0.12,0.345,0.176,0.537,0.176c0.148,0,0.294-0.034,0.426-0.105l9.207-4.874l9.226,4.832c0.132,0.067,0.28,0.095,0.417,0.095
		c0.503,0,0.92-0.412,0.92-0.91c0-0.077-0.013-0.147-0.029-0.217l-1.776-10.2l7.436-7.288
		C159.871,80.844,159.957,80.479,159.852,80.144L159.852,80.144z M150.554,87.402"/>
</g>
</svg>
