<?xml version="1.0" encoding="utf-8"?>
<!-- Generator: Adobe Illustrator 16.0.0, SVG Export Plug-In . SVG Version: 6.00 Build 0)  -->
<!DOCTYPE svg PUBLIC "-//W3C//DTD SVG 1.0//EN" "http://www.w3.org/TR/2001/REC-SVG-20010904/DTD/svg10.dtd">
<svg version="1.0" id="Layer_1" xmlns="http://www.w3.org/2000/svg" xmlns:xlink="http://www.w3.org/1999/xlink" x="0px" y="0px"
	 width="45px" height="45px" viewBox="0 0 200 200" enable-background="new 0 0 200 200" xml:space="preserve">
<g>
	<g>
		<path fill="#004CD2" d="M90.808,153.588l-4.273,0.065c-0.45,0.005-0.882-0.198-1.164-0.551l-0.259-0.338
			c-0.136-0.186-0.27-0.371-0.43-0.531c-1.133-1.136-1.788-2.57-1.907-4.146c-0.175-2.294-1.14-4.472-1.986-6.396
			c-0.945-2.144-1.854-4.456-2.948-7.497c-0.337-0.932-0.579-1.899-0.817-2.872c-0.101-0.396-0.198-0.798-0.303-1.194
			c-0.092-0.114-0.199-0.247-0.228-0.293l-0.165-0.255c-0.236-0.366-0.467-0.732-0.64-1.129c-0.277-0.649-0.523-1.3-0.769-1.953
			l-0.265-0.692c-0.074-0.203-0.165-0.403-0.253-0.604c-0.238-0.541-0.506-1.154-0.621-1.847c-0.521-3.157-1.061-6.515-1.462-9.879
			c-0.207-1.716-0.357-3.711,0.438-5.74c-0.009-0.027-0.037-0.255-0.223-0.824c-0.014,0.005-0.026,0.008-0.039,0.013
			c-1.284,0.483-2.604,0.771-3.957,1.048c-0.742,0.133-1.771-0.172-2.35-0.683c-0.993-0.886-1.933-1.827-2.857-2.768
			c-0.341-0.344-0.666-0.701-0.99-1.062c-0.311-0.345-0.619-0.688-0.942-1.015c-0.491-0.488-1.73-1.73-0.778-3.36
			c0.098-0.168,0.203-0.311,0.316-0.43c-1.22-1.019-2.1-2.271-2.729-3.251c-0.222-0.354-0.29-0.781-0.175-1.184
			c0.113-0.401,0.391-0.736,0.768-0.917c0.281-0.134,0.561-0.246,0.828-0.354c0.255-0.1,0.646-0.254,0.733-0.344
			c0.893-0.928,1.968-1.402,3.285-1.451l1.564-0.048c1.196-0.034,2.396-0.064,3.587-0.167c-0.242-0.373-0.503-0.631-0.783-0.9
			l-0.345-0.344c-0.718-0.729-1.628-1.856-1.629-3.472c-0.491-0.438-0.637-0.929-0.674-1.23c-0.074-0.52,0.033-1.299,0.928-2.067
			c1.154-0.988,2.361-1.914,3.589-2.804c0.545-0.399,1.187-0.466,1.52-0.471c0.281-0.005,0.553,0.031,0.799,0.107
			c0.391,0.118,0.558,0.138,0.629,0.141c0-0.015,0.098-0.098,0.286-0.332c0.471-0.584,0.867-1.222,1.267-1.859
			c0.713-1.127,1.577-2.194,3.254-2.499c0.099-0.019,0.344-0.173,0.493-0.355c1.347-1.668,2.777-2.97,4.383-3.973l1.538-0.841
			l-1.377,0.482c-0.474-1.353-0.054-2.599,1.055-3.25l-1.388-0.877c-1.164-0.72-1.824-1.825-1.91-3.198l-0.028-0.394
			c-0.037-0.618-0.064-1.206-0.202-1.697c-0.4-1.423-0.23-2.635,0.521-3.812c0.099-0.15,0.306-0.47-0.253-1.002
			c-0.524-0.497-0.909-1.066-1.19-1.51c-0.904-1.43-0.565-2.953,0.863-3.893c0.327-0.216,0.634-0.454,0.941-0.691l0.457-0.351
			c0.246-0.185,0.544-0.284,0.851-0.291l6.688-0.101c0.493-0.005,0.958,0.238,1.23,0.648c0.763,1.132,1.382,1.562,2.295,1.581
			c0.888,0.02,2.117,0.308,2.917,1.067c0.986,0.927,2.195,1.352,4.054,1.42c0.818,0.029,1.682,0.277,2.422,0.701
			c0.82,0.462,1.353,1.229,1.451,2.1c0.111,0.931-0.273,1.877-1.053,2.602c-0.275,0.25-0.54,0.629-0.814,1.154
			c-0.445,0.85-1.113,1.854-2.361,2.411c0.027,0.292,0.082,0.478,0.127,0.592c0.939,2.296,0.804,3.875-0.571,5.193l0.097,0.092
			c0.534,0.514,1.092,1.046,1.555,1.722l0.503,0.777c0.61,0.956,1.135,1.779,1.98,2.247c1.124,0.615,1.048,2.227,0.838,2.865
			c-0.211,0.658-0.505,1.296-0.798,1.931l-0.306,0.673c-0.029,0.067-0.056,0.129-0.072,0.177c0.066,0.05,0.158,0.109,0.271,0.186
			c0.695,0.456,1.281,0.996,1.849,1.516c0.347,0.318,0.692,0.638,1.066,0.929c0.357,0.283,0.852,0.509,1.373,0.75
			c0.329,0.153,0.601,0.242,0.874,0.339c0.298,0.104,0.598,0.212,0.892,0.336c0.872,0.38,1.67,0.687,2.565,0.673
			c0.035-0.003,0.509-0.024,0.543-0.024c1.427-0.021,2.818,0.667,3.642,1.322c1.5,1.18,3.165,1.719,5.233,1.688h0.021
			c0.847-0.012,1.365,0.137,1.786,0.258l0.337,0.09c0.202,0.05,0.394,0.118,0.584,0.188c0.128,0.043,0.27,0.098,0.34,0.106
			c0.043,0.009,0.088,0.013,0.133,0.019c-0.016-0.035-0.026-0.074-0.041-0.117c-0.722-2.124-0.065-3.519,0.615-4.313
			c0.662-0.785,1.976-1.358,2.917-1.236c1.313,0.165,2.111,1.563,2.323,1.986c0.272,0.547,0.361,1.108,0.429,1.555
			c0.033,0.197,0.062,0.395,0.113,0.582c0.041,0,0.083,0,0.122,0c2.136-0.031,4.385-0.227,6.64-0.43
			c0.078-0.007,0.281-0.086,0.417-0.139c0.031-0.014,0.065-0.026,0.089-0.039c-0.344-0.355-1.045-1.15-0.872-2.179
			c0.183-1.1,1.204-1.609,1.591-1.802c0.728-0.361,1.497-0.667,2.286-0.914c1.441-0.445,2.247-1.165,2.603-2.339
			c0.422-1.382,1.719-2.003,3.067-1.37c0.346,0.069,0.553-0.072,0.779-0.294c0.518-0.518,1.143-1.144,2.067-1.158
			c0.413-0.007,0.942,0.11,1.445,0.581c0.909-0.282,1.698-0.124,2.23,0.43c0.574,0.589,0.614,1.399,0.592,1.966
			c1.157,0.268,1.912,1.29,2.161,1.935c0.324,0.85,0.288,1.749,0.265,2.472c-0.053,1.42-0.966,2.474-2.444,2.838
			c-0.739,0.18-1.184,0.563-1.531,1.319c-0.411,0.906-1.122,1.605-1.764,2.171c-0.793,0.699-1.051,1.322-0.917,2.221
			c0.109,0.77-0.086,1.484-0.24,2.06c-0.188,0.696-0.329,1.157-0.471,1.618c-0.164,0.53-0.327,1.058-0.458,1.592
			c-0.527,2.216-2.126,2.481-2.792,2.49c-0.019,0-0.054-0.001-0.104-0.002c-0.128,0.768-0.206,1.484-0.271,2.201
			c-0.161,1.798-0.907,3.413-2.338,5.085c-0.413,0.472-1.071,0.636-1.645,0.406c-0.579-0.228-0.949-0.795-0.919-1.418l0.082-1.806
			c0.027-0.615,0.058-1.229,0.08-1.845c-0.312,0.083-0.694,0.104-1.143,0.045c-0.162-0.021-0.322-0.057-0.489-0.1l-0.603-0.101
			c-0.74-0.095-1.981-0.26-2.062-1.533c-0.066-0.973-0.085-2.001,0.368-2.938c0.359-0.735,0.974-1.231,1.464-1.631
			c0.144-0.117,0.289-0.229,0.419-0.351c0.041-0.036,0.08-0.072,0.123-0.105c-1.211,0-2.292,0.007-3.404,0.06l-0.349,0.009
			c-2.118,0.03-3.117-0.811-3.565-3.003c-0.021-0.111-0.041-0.225-0.056-0.338c-0.267-0.005-0.53-0.026-0.791-0.065
			c0.024,0.031,0.051,0.065,0.072,0.099c0.575,0.899,0.456,1.642,0.33,2.006c-0.102,0.295-0.35,0.786-0.959,1.14
			c0.812,1.007,1.016,2.182,1.093,3.081l0.022,0.339c0.091,1.217,0.169,1.932,0.796,2.419c0.592,0.453,0.724,1.117,0.802,1.515
			c0.208,0.894,0.374,1.646,0.545,2.405l0.113,0.53c0.175,0.781-0.312,1.558-1.094,1.736l-1.014,0.244
			c-0.951,0.236-1.985,0.486-3.04,0.656c-1.034,0.157-1.532-0.049-1.959-0.399c-0.502,0.363-0.995,0.726-1.475,1.101
			c0.037,2.817-1.308,4.745-3.808,5.559c-2.587,0.848-4.328,2.84-5.829,4.866c-0.199,0.268-0.5,0.671-0.928,0.986
			c-0.722,0.527-1.453,1.05-2.179,1.57l-2.5,1.819c-0.707,0.547-1.564,1.208-2.72,1.369c-0.065,0.32-0.199,0.642-0.452,0.935
			c-0.261,0.296-0.735,0.647-1.521,0.689c-1.299,1.153-2.802,1.654-3.989,1.963l0,0c-0.015,0-0.046,0.176,0.017,0.506
			c0.11,0.59,0.187,1.182,0.263,1.773c0.045,0.367,0.089,0.734,0.147,1.101c0.061,0.404,0.109,0.711,0.189,0.896
			c0.193,0.46,0.601,1.413,0.025,2.314c-0.066,0.112-0.143,0.206-0.225,0.296c0.268,1.352-0.277,2.51-0.674,3.354
			c-0.115,0.244-0.232,0.487-0.327,0.74c-0.259,0.685-0.385,1.489-0.481,2.259c-0.125,0.992-0.181,1.987-0.172,2.953
			c0.014,1.381-0.71,2.387-2.046,2.825c-0.199,0.067-0.389,0.15-0.58,0.229c-0.733,0.308-0.802,0.542-0.83,0.802
			c-0.16,1.571-1.182,2.566-2.718,2.654c-0.07,0.006-0.152,0.01-0.292,0.323l-0.599,1.265
			C91.866,153.257,91.362,153.582,90.808,153.588z M87.225,150.729l2.634-0.037l0.19-0.407c0.757-1.664,2.064-1.982,2.779-2.021
			c0.099-1.055,0.604-2.404,2.416-3.165c0.426-0.179,0.696-0.292,0.972-0.385c0.031-1.125,0.098-2.246,0.237-3.368
			c0.118-0.949,0.277-1.963,0.647-2.932c0.119-0.315,0.269-0.63,0.411-0.945c0.534-1.141,0.624-1.466,0.214-2.062
			c-0.294-0.438-0.331-1.006-0.093-1.478c0.123-0.244,0.307-0.442,0.532-0.58c-0.104-0.372-0.15-0.669-0.195-0.948
			c-0.074-0.502-0.127-0.898-0.173-1.292c-0.069-0.532-0.134-1.066-0.234-1.594c-0.363-1.922,0.465-3.438,2.109-3.868
			c1.39-0.359,2.236-0.78,2.925-1.45c0.273-0.269,0.597-0.415,0.889-0.5c0-0.025,0.002-0.052,0.002-0.081l-0.002-0.299
			c-0.007-0.476,0.218-0.923,0.603-1.199c0.386-0.28,0.882-0.354,1.33-0.196c0.664,0.227,1.046-0.067,1.889-0.717l2.584-1.881
			c0.722-0.516,1.445-1.032,2.159-1.552c0.069-0.052,0.228-0.268,0.304-0.369c1.702-2.302,3.897-4.804,7.273-5.901
			c1.326-0.436,1.846-1.229,1.782-2.749c-0.022-0.644,0.092-1.512,0.759-2.045c0.758-0.608,1.552-1.183,2.354-1.766l0.802-0.581
			c0.355-0.262,0.822-0.345,1.241-0.229c0.43,0.114,0.779,0.417,0.956,0.825c0.017,0.044,0.035,0.084,0.052,0.125
			c0.804-0.141,1.523-0.311,2.191-0.474c-0.105-0.453-0.204-0.905-0.314-1.354c0,0-0.029-0.144-0.054-0.264
			c-1.423-1.287-1.546-3.002-1.639-4.275l-0.028-0.318c-0.093-1.167-0.424-1.585-0.928-1.876c-0.51-0.298-0.756-0.756-0.9-1.028
			c-0.226-0.334-0.333-0.803-0.242-1.197c0.088-0.394,0.304-0.784,0.649-0.991c0.264-0.164,0.458-0.284,0.633-0.377
			c-0.555-0.55-0.904-1.208-1.02-1.928c-0.024-0.173-0.039-0.344-0.037-0.514c-0.581,0.265-1.262,0.321-2.361,0.163
			c-0.355-0.053-0.66-0.163-0.906-0.251c-0.1-0.035-0.196-0.076-0.297-0.101l-0.434-0.119c-0.263-0.078-0.53-0.169-0.7-0.149
			c-3.006,0.045-5.318-0.713-7.342-2.309c-0.512-0.408-1.287-0.704-1.795-0.697c-0.229,0.016-0.388,0.021-0.544,0.026
			c-1.47,0.021-2.666-0.441-3.76-0.912c-0.227-0.098-0.465-0.182-0.703-0.262c-0.36-0.126-0.718-0.256-1.061-0.416
			c-0.686-0.313-1.391-0.635-2.018-1.126c-0.434-0.338-0.84-0.71-1.243-1.079c-0.474-0.435-0.943-0.876-1.474-1.226
			c-1.447-0.949-2.163-1.945-1.271-3.971l0.329-0.723c0.211-0.46,0.431-0.922,0.6-1.4c-1.129-0.811-1.815-1.888-2.434-2.856
			l-0.459-0.705c-0.287-0.421-0.711-0.826-1.155-1.254l-0.61-0.596c-0.142-0.145-0.296-0.274-0.461-0.417l-0.271-0.233
			c-0.352-0.312-0.528-0.778-0.479-1.247c0.052-0.465,0.32-0.88,0.73-1.112c1.487-0.84,1.55-1.04,0.885-2.684
			c-0.25-0.613-0.369-1.332-0.361-2.201c0.009-0.878,0.718-1.831,1.548-2.079c0.409-0.121,0.729-0.353,1.16-1.179
			c0.436-0.83,0.9-1.465,1.424-1.942c-0.192-0.21-0.606-0.333-0.951-0.346c-1.747-0.063-3.999-0.373-5.947-2.214
			c-0.101-0.095-0.51-0.262-0.982-0.272c-2.046-0.042-3.306-1.102-4.176-2.215l-5.501,0.122c-0.352,0.272-0.705,0.54-1.073,0.785
			c0.21,0.341,0.435,0.649,0.687,0.888c1.398,1.33,1.672,3.168,0.701,4.685c-0.304,0.472-0.346,0.838-0.171,1.457
			c0.219,0.797,0.268,1.604,0.309,2.32l0.021,0.371c0.031,0.434,0.179,0.683,0.549,0.91l3.545,2.239
			c0.402,0.253,0.653,0.687,0.678,1.162c0.024,0.476-0.187,0.929-0.561,1.22c-0.379,0.318-0.679,0.568-1.055,0.774
			c-0.34,0.183-0.675,0.276-0.944,0.351l-0.071,0.023c0.421,1.516-0.104,2.831-1.41,3.657c-1.33,0.832-2.528,1.923-3.67,3.34
			c-0.454,0.556-1.276,1.212-2.238,1.389c-0.411,0.073-0.716,0.251-1.164,0.956c-0.6,0.959-1.066,1.688-1.602,2.361
			c-0.559,0.693-1.29,1.406-2.504,1.422c-0.538,0.008-1.076-0.128-1.525-0.267c-0.797,0.661-1.742,1.394-2.678,2.172
			c0.257,0.446,0.322,0.965,0.281,1.323c-0.056,0.456,0.06,0.877,0.775,1.609l0.314,0.309c0.426,0.417,0.912,0.897,1.299,1.484
			c0.385,0.592,0.921,1.958,0.23,2.956c-0.539,0.768-1.556,1.358-2.473,1.437c-1.272,0.112-2.546,0.148-3.826,0.181l-1.529,0.049
			c-0.565,0.019-0.932,0.18-1.301,0.562c-0.245,0.255-0.522,0.448-0.807,0.604c0.364,0.451,0.775,0.883,1.242,1.26
			c1.023,0.819,1.509,0.988,2.214,0.703c0.471-0.189,1.005-0.12,1.406,0.176c0.409,0.294,0.635,0.783,0.594,1.285
			c-0.109,1.499-1.379,2.489-2.709,2.735c0.037,0.041,0.071,0.082,0.106,0.119c0.298,0.327,0.594,0.654,0.9,0.967
			c0.882,0.9,1.774,1.796,2.714,2.631c1.071-0.241,2.269-0.498,3.347-0.907c0.17-0.063,0.285-0.82,0.331-1.102
			c0.028-0.187,0.035-0.367,0.047-0.565l0.024-0.369c0.039-0.546,0.381-1.021,0.882-1.237c0.515-0.207,1.09-0.126,1.505,0.225
			c1.073,0.897,1.672,3.26,0.839,4.538c0.387,0.838,0.794,2.046,0.378,3.107c-0.551,1.404-0.432,2.91-0.263,4.336
			c0.396,3.301,0.931,6.62,1.443,9.744c0.056,0.329,0.234,0.73,0.419,1.152c0.105,0.241,0.214,0.489,0.307,0.732l0.268,0.709
			c0.229,0.612,0.458,1.223,0.717,1.824c0.107,0.246,0.264,0.471,0.411,0.704l0.201,0.31c0.107,0.101,0.366,0.371,0.489,0.812
			c0.138,0.498,0.26,1.003,0.385,1.507c0.216,0.87,0.428,1.738,0.732,2.58c1.066,2.972,1.954,5.229,2.873,7.308
			c0.941,2.137,2.009,4.56,2.225,7.35c0.07,0.891,0.426,1.666,1.062,2.311C86.914,150.343,87.072,150.532,87.225,150.729z
			 M140.831,97.15c0.277-0.003,1.118-0.017,1.735,0.609c0.008,0.009,0.013,0.014,0.019,0.02c0.391-0.906,1.172-1.438,2.184-1.454
			c0.063,0.002,0.349,0.019,0.412,0.026c-0.036,0.064,0.015,0.033,0.085-0.25c0.14-0.593,0.32-1.185,0.504-1.774
			c0.131-0.422,0.263-0.847,0.374-1.272c0.149-0.546,0.259-0.956,0.236-1.125c-0.281-1.887,0.333-3.469,1.872-4.827
			c0.385-0.343,0.855-0.788,1.045-1.203c0.711-1.554,1.883-2.542,3.482-2.936c0.244-0.598,0.267-1.14,0.156-1.431
			c-0.078-0.096-0.085-0.122-0.041-0.126c-1.012-0.117-2.105-0.621-2.292-2.204c-0.513,0.079-1.022-0.042-1.447-0.354
			c-1.125,1.05-2.165,1.347-3.298,1.067c-0.748,1.748-2.186,2.956-4.288,3.608c-0.459,0.14-0.921,0.312-1.365,0.51
			c0.448,0.511,0.982,1.33,0.77,2.309c-0.282,1.275-1.594,1.771-2.153,1.984c-0.471,0.184-0.879,0.343-1.364,0.384
			c-1.684,0.153-3.372,0.301-5.063,0.428c0.608,0.271,1.009,0.796,1.164,1.204c0.142,0.391,0.181,0.744,0.211,1.025l0.033,0.292
			c0.082,0.408,0.15,0.594,0.188,0.673c0.032-0.02,0.195,0.002,0.482-0.003c0.872-0.033,1.482-0.05,2.093-0.06
			c1.02-0.013,2.037-0.009,3.057-0.004c1.246,0.002,2.072,0.465,2.453,1.236c0.372,0.761,0.244,1.675-0.35,2.449
			c-0.36,0.47-0.787,0.808-1.164,1.105c-0.049,0.039-0.092,0.076-0.14,0.114C140.568,97.159,140.71,97.153,140.831,97.15z
			 M127.083,85.083c-0.076,0.048-0.173,0.113-0.214,0.16c-0.111,0.131-0.413,0.484-0.07,1.483c0.119,0.353,0.229,0.723,0.29,1.098
			c0.195-0.12,0.42-0.193,0.654-0.213c0.034,0,0.071-0.003,0.104-0.003c-0.085-0.176-0.152-0.363-0.208-0.56
			c-0.094-0.311-0.144-0.625-0.193-0.936c-0.045-0.28-0.088-0.569-0.156-0.712C127.227,85.281,127.152,85.171,127.083,85.083z"/>
		<circle fill="#FCDB17" cx="82.202" cy="115.798" r="4.737"/>
		<path fill="#FCDB17" d="M113.151,93.534c0.039,2.614-2.046,4.765-4.662,4.803c-2.617,0.041-4.768-2.048-4.805-4.663
			c-0.039-2.615,2.048-4.766,4.666-4.805C110.966,88.829,113.112,90.917,113.151,93.534z"/>
		<path fill="#FCDB17" d="M95.38,76.409c0.039,2.617-2.05,4.766-4.664,4.807c-2.617,0.038-4.77-2.048-4.809-4.664
			c-0.037-2.616,2.051-4.767,4.668-4.806C93.188,71.708,95.341,73.8,95.38,76.409z"/>
		<path fill="#FCDB17" d="M95.378,140.227c0.039,2.616-2.048,4.768-4.665,4.806c-2.612,0.038-4.765-2.048-4.802-4.665
			c-0.039-2.613,2.05-4.765,4.66-4.805C93.188,135.524,95.339,137.61,95.378,140.227z"/>
		<circle fill="#FCDB17" cx="75.974" cy="95.817" r="4.735"/>
		<path fill="#FCDB17" d="M99.717,117.694c0.039,2.616-2.049,4.767-4.666,4.806c-2.61,0.038-4.763-2.048-4.802-4.664
			c-0.039-2.615,2.051-4.768,4.662-4.806C97.529,112.993,99.68,115.08,99.717,117.694z"/>
		<circle fill="#FCDB17" cx="86.938" cy="105.22" r="2.61"/>
		<path fill="#FCDB17" d="M90.644,126.896c0.021,1.442-1.133,2.628-2.576,2.65c-1.44,0.021-2.625-1.132-2.646-2.574
			c-0.022-1.441,1.127-2.626,2.569-2.647C89.433,124.305,90.621,125.454,90.644,126.896z"/>
		<circle fill="#FCDB17" cx="104.709" cy="113.029" r="2.608"/>
		<path fill="#FCDB17" d="M102.609,101.684c0.022,1.441-1.128,2.627-2.569,2.65c-1.441,0.021-2.627-1.133-2.649-2.574
			c-0.02-1.44,1.13-2.626,2.571-2.647C101.404,99.091,102.587,100.242,102.609,101.684z"/>
		<path fill="#FCDB17" d="M123.229,97.156c0.021,1.438-1.129,2.623-2.57,2.643c-1.442,0.022-2.629-1.127-2.651-2.567
			c-0.021-1.442,1.131-2.631,2.573-2.652C122.021,94.559,123.206,95.711,123.229,97.156z"/>
		<circle fill="#FCDB17" cx="146.052" cy="84.926" r="2.612"/>
		<circle fill="#FCDB17" cx="80.708" cy="84.924" r="2.61"/>
		<path fill="#FCDB17" d="M99.705,84.888c0.022,1.439-1.129,2.624-2.57,2.647c-1.442,0.02-2.625-1.132-2.646-2.574
			c-0.022-1.439,1.127-2.625,2.568-2.646C98.5,82.294,99.685,83.446,99.705,84.888z"/>
		<path fill="#FCDB17" d="M117.888,106.388c0.037,2.615-2.05,4.768-4.666,4.807c-2.611,0.037-4.764-2.051-4.803-4.667
			c-0.039-2.614,2.05-4.766,4.662-4.803C115.698,101.686,117.849,103.772,117.888,106.388z"/>
		<path fill="#FCDB17" d="M94.982,93.532c0.039,2.616-2.049,4.764-4.666,4.803c-2.613,0.038-4.765-2.051-4.804-4.665
			c-0.039-2.617,2.051-4.765,4.664-4.801C92.794,88.827,94.943,90.915,94.982,93.532z"/>
		<path fill="#FCDB17" d="M96.015,59.849c0.022,1.592-1.246,2.905-2.841,2.929c-1.589,0.021-2.902-1.251-2.927-2.841
			c-0.021-1.594,1.253-2.901,2.841-2.925C94.683,56.989,95.99,58.259,96.015,59.849z"/>
	</g>
</g>
</svg>
