<?xml version="1.0" encoding="utf-8"?>
<!-- Generator: Adobe Illustrator 16.0.0, SVG Export Plug-In . SVG Version: 6.00 Build 0)  -->
<!DOCTYPE svg PUBLIC "-//W3C//DTD SVG 1.0//EN" "http://www.w3.org/TR/2001/REC-SVG-20010904/DTD/svg10.dtd">
<svg version="1.0" id="Layer_1" xmlns="http://www.w3.org/2000/svg" xmlns:xlink="http://www.w3.org/1999/xlink" x="0px" y="0px"
	 width="45px" height="45.001px" viewBox="0 0 45 45.001" enable-background="new 0 0 45 45.001" xml:space="preserve">
<g>
	<g>
		<path fill="#004CD2" d="M28.369,26.977l-2.071-0.69l-0.745-1.488c0.67-0.682,1.136-1.584,1.292-2.525l0.092-0.557h0.794
			c0.721,0,1.308-0.586,1.308-1.308v-2.746c0-3.605-2.933-6.539-6.539-6.539c-3.614,0-6.538,2.925-6.538,6.539v2.746
			c0,0.568,0.364,1.054,0.872,1.233v0.511c0,0.721,0.586,1.308,1.308,1.308h0.383c0.189,0.41,0.434,0.791,0.731,1.132
			c0.062,0.071,0.126,0.141,0.192,0.208l-0.744,1.486l-2.072,0.69c-2.409,0.803-4.158,3.339-4.158,6.029
			c0,0.241,0.195,0.437,0.436,0.437h19.18c0.241,0,0.436-0.195,0.436-0.437C32.526,30.315,30.778,27.779,28.369,26.977z
			 M28.167,20.408c0,0.24-0.195,0.436-0.436,0.436h-0.666c0.111-0.857,0.185-1.771,0.215-2.671c0-0.025,0.001-0.05,0.002-0.074
			h0.884V20.408z M17.269,20.844c-0.24,0-0.436-0.195-0.436-0.436v-2.31h0.885c0.001,0.045,0.003,0.091,0.005,0.137
			c0,0.002,0,0.003,0,0.003v0.002c0.03,0.875,0.104,1.765,0.211,2.604H17.269L17.269,20.844z M18.141,22.588
			c-0.24,0-0.436-0.195-0.436-0.436v-0.437h0.358l0.092,0.557c0.018,0.105,0.039,0.211,0.065,0.315H18.141z M17.706,17.227H16.85
			c0.221-2.922,2.659-5.231,5.65-5.231c2.978,0,5.427,2.31,5.65,5.231h-0.856c-0.031-2.407-1.992-4.359-4.404-4.359h-0.78
			C19.698,12.867,17.737,14.819,17.706,17.227z M22.11,13.739h0.78c1.953,0,3.534,1.598,3.533,3.549
			c0,0.137-0.001,0.256-0.004,0.365v0.004l-0.545-0.078c-1.481-0.211-2.88-0.91-3.938-1.969c-0.082-0.082-0.193-0.128-0.308-0.128
			c-1.171,0-2.292,0.534-3.032,1.435C18.779,15.143,20.279,13.739,22.11,13.739z M19.124,22.588
			c-0.218-0.726-0.469-2.861-0.523-4.23l0.587-0.782c0.539-0.719,1.376-1.165,2.269-1.216c1.173,1.117,2.691,1.854,4.295,2.083
			l0.642,0.092c-0.042,0.91-0.13,1.824-0.256,2.664v0.001c-0.04,0.271-0.071,0.444-0.152,0.93c-0.23,1.385-1.264,2.637-2.627,2.978
			c-0.562,0.141-1.153,0.141-1.714,0c-0.852-0.213-1.632-0.802-2.136-1.646h0.888c0.18,0.508,0.665,0.872,1.233,0.872H22.5
			c0.723,0,1.308-0.585,1.308-1.308c0-0.722-0.586-1.309-1.308-1.309h-0.871c-0.582,0-1.059,0.376-1.234,0.872H19.124z
			 M21.592,25.989c0.299,0.062,0.603,0.095,0.908,0.095c0.239,0,0.478-0.02,0.713-0.059l-0.771,0.814L21.592,25.989z M21.843,27.474
			l-1.382,1.462c-0.38-0.729-0.708-1.486-0.976-2.263l0.52-1.039L21.843,27.474z M24.923,25.487l0.592,1.186
			c-0.269,0.777-0.595,1.536-0.976,2.264l-1.48-1.479L24.923,25.487z M21.193,23.024c0-0.241,0.195-0.437,0.436-0.437H22.5
			c0.24,0,0.436,0.196,0.436,0.437S22.741,23.46,22.5,23.46h-0.871C21.388,23.46,21.193,23.265,21.193,23.024z M13.364,32.57
			c0.172-2.159,1.61-4.122,3.543-4.768l1.835-0.61c0.337,0.929,0.753,1.832,1.241,2.691c0.001,0.001,0.001,0.002,0.002,0.004h0
			c0.356,0.627,0.758,1.24,1.193,1.822l0.536,0.86H13.364z M22.5,32.182l-0.591-0.949c-0.006-0.011-0.013-0.021-0.021-0.03
			c-0.353-0.472-0.683-0.964-0.982-1.468l1.554-1.644l1.638,1.638c-0.302,0.508-0.633,1.002-0.986,1.474
			C23.091,31.23,23.122,31.186,22.5,32.182z M23.285,32.57l0.537-0.86c0.437-0.584,0.841-1.201,1.202-1.837
			c0.002-0.004,0.004-0.008,0.006-0.012l0-0.001c0.482-0.851,0.894-1.746,1.228-2.668l1.834,0.61
			c1.935,0.646,3.372,2.608,3.544,4.768H23.285L23.285,32.57z"/>
	</g>
	<path fill="#FFD712" d="M21.193,23.024c0-0.241,0.195-0.437,0.436-0.437H22.5c0.24,0,0.436,0.196,0.436,0.437
		S22.741,23.46,22.5,23.46h-0.871C21.388,23.46,21.193,23.265,21.193,23.024z"/>
	<path fill="#FFD712" d="M28.167,20.408c0,0.24-0.195,0.436-0.436,0.436h-0.666c0.111-0.857,0.185-1.771,0.215-2.671
		c0-0.025,0.001-0.05,0.002-0.074h0.884V20.408z"/>
	<path fill="#FFD712" d="M17.269,20.844c-0.24,0-0.436-0.195-0.436-0.436v-2.31h0.885c0.001,0.045,0.003,0.091,0.005,0.137
		c0,0.002,0,0.003,0,0.003v0.002c0.03,0.875,0.104,1.765,0.211,2.604H17.269L17.269,20.844z"/>
</g>
</svg>
