<?xml version="1.0" encoding="utf-8"?>
<!-- Generator: Adobe Illustrator 16.0.0, SVG Export Plug-In . SVG Version: 6.00 Build 0)  -->
<!DOCTYPE svg PUBLIC "-//W3C//DTD SVG 1.0//EN" "http://www.w3.org/TR/2001/REC-SVG-20010904/DTD/svg10.dtd">
<svg version="1.0" id="Layer_1" xmlns="http://www.w3.org/2000/svg" xmlns:xlink="http://www.w3.org/1999/xlink" x="0px" y="0px"
	 width="45px" height="45px" viewBox="0 0 62.205 62.204" enable-background="new 0 0 62.205 62.204" xml:space="preserve">
<g>
	<path fill="#FFD712" d="M23.718,20.084c0,0,0.548,6.035-5.075,4.168v-4.168H23.718z"/>
	<path fill="#FFD712" d="M44.88,20.084h-0.026v-0.139v-0.068H18.933v0.068H18.67v7.021l2.168,0.658v-5.402h19.17
		c0.306,1.117,1.023,2.272,2.679,2.379v3.023l2.167-0.658V24.26c0.008-0.003,0.017-0.005,0.026-0.008V20.084z"/>
	<g>
		<g>
			<path fill="#FFD712" d="M35.963,28.23c0,2.315-1.883,4.205-4.201,4.205c-2.316,0-4.206-1.89-4.206-4.205
				c0-2.318,1.89-4.201,4.206-4.201C34.08,24.029,35.963,25.912,35.963,28.23z"/>
			<path fill="#004CD2" d="M31.762,23.048c-2.856,0-5.18,2.325-5.18,5.183c0,2.855,2.323,5.18,5.18,5.18
				c2.859,0,5.182-2.324,5.182-5.18C36.943,25.373,34.621,23.048,31.762,23.048z M31.762,32.436c-2.316,0-4.206-1.89-4.206-4.205
				c0-2.318,1.89-4.201,4.206-4.201c2.318,0,4.201,1.883,4.201,4.201C35.963,30.546,34.08,32.436,31.762,32.436z"/>
		</g>
	</g>
	<g>
		<g>
			<path fill="#004CD2" d="M47.177,25.233l-1.893-1.435v-3.91c0-0.27-0.22-0.49-0.486-0.49h-5.313l-6.799-5.156
				c-0.543-0.414-1.307-0.414-1.852,0L24.035,19.4h-5.31c-0.27,0-0.489,0.219-0.489,0.488v3.91l-1.892,1.435
				c-0.12,0.093-0.194,0.239-0.194,0.391v18.771c0,0.27,0.22,0.488,0.49,0.488h20.855c0.27,0,0.488-0.219,0.488-0.488
				c0-0.271-0.219-0.49-0.488-0.49H17.129V26.502l28.037,17.402h-5.062c-0.271,0-0.489,0.219-0.489,0.49
				c0,0.27,0.218,0.488,0.489,0.488h6.774c0.191,0,0.367-0.112,0.445-0.284c0.029-0.063,0.045-0.135,0.045-0.204V25.624
				C47.369,25.473,47.297,25.326,47.177,25.233z M18.236,26.039l-0.734-0.455l0.734-0.558V26.039z M45.284,25.026l0.735,0.558
				l-0.735,0.455V25.026z M20.322,24.581v2.753l-1.105-0.688v-6.27h9.938c0.27,0,0.486-0.219,0.486-0.488s-0.217-0.49-0.486-0.49
				h-3.5l5.772-4.378c0.196-0.148,0.471-0.148,0.669,0l5.771,4.378H31.76c-0.271,0-0.488,0.221-0.488,0.49s0.218,0.488,0.488,0.488
				h12.547v6.27l-1.109,0.688v-2.753c0-0.271-0.217-0.489-0.487-0.489c-1.167,0-2.118-0.949-2.118-2.117
				c0-0.27-0.219-0.489-0.487-0.489H23.418c-0.27,0-0.488,0.22-0.488,0.489c0,1.168-0.949,2.117-2.117,2.117
				C20.541,24.092,20.322,24.311,20.322,24.581z M21.301,27.94v-2.909c1.316-0.209,2.358-1.252,2.568-2.568h15.784
				c0.21,1.316,1.252,2.359,2.568,2.568v2.909L31.76,34.436L21.301,27.94z M46.391,43.516L32.688,35.01l13.703-8.508V43.516
				L46.391,43.516z"/>
		</g>
	</g>
	<g>
		<g>
			<path fill="#004CD2" d="M39.061,14.707h-0.555v-0.554c0-0.271-0.219-0.489-0.488-0.489s-0.488,0.219-0.488,0.489v0.554h-0.555
				c-0.27,0-0.488,0.219-0.488,0.488c0,0.271,0.219,0.49,0.488,0.49h0.555v0.553c0,0.271,0.219,0.489,0.488,0.489
				s0.488-0.218,0.488-0.489v-0.553h0.555c0.27,0,0.488-0.219,0.488-0.49C39.549,14.926,39.33,14.707,39.061,14.707z"/>
		</g>
	</g>
	<g>
		<g>
			<path fill="#004CD2" d="M22.376,16.271h-0.554v-0.555c0-0.268-0.219-0.488-0.49-0.488c-0.27,0-0.487,0.219-0.487,0.488v0.555
				h-0.554c-0.271,0-0.491,0.22-0.491,0.488c0,0.271,0.22,0.488,0.491,0.488h0.554v0.555c0,0.271,0.218,0.488,0.487,0.488
				c0.271,0,0.49-0.218,0.49-0.488v-0.555h0.554c0.269,0,0.489-0.218,0.489-0.488C22.865,16.491,22.645,16.271,22.376,16.271z"/>
		</g>
	</g>
	<g>
		<g>
			<path fill="#004CD2" d="M43.232,16.271h-0.556v-0.555c0-0.268-0.218-0.488-0.489-0.488c-0.268,0-0.488,0.219-0.488,0.488v0.555
				h-0.553c-0.271,0-0.488,0.22-0.488,0.488c0,0.271,0.217,0.488,0.488,0.488h0.553v0.555c0,0.271,0.221,0.488,0.488,0.488
				c0.271,0,0.489-0.218,0.489-0.488v-0.555h0.556c0.27,0,0.488-0.218,0.488-0.488C43.721,16.491,43.502,16.271,43.232,16.271z"/>
		</g>
	</g>
	<g>
		<g>
			<path fill="#004CD2" d="M26.546,14.707h-0.554v-0.554c0-0.271-0.219-0.489-0.488-0.489s-0.489,0.219-0.489,0.489v0.554h-0.554
				c-0.271,0-0.49,0.219-0.49,0.488c0,0.271,0.219,0.49,0.49,0.49h0.554v0.553c0,0.271,0.22,0.489,0.489,0.489
				s0.488-0.218,0.488-0.489v-0.553h0.554c0.271,0,0.491-0.219,0.491-0.49C27.035,14.926,26.816,14.707,26.546,14.707z"/>
		</g>
	</g>
	<path fill="#004CD2" d="M33.75,27.157c0,0.141-0.118,0.255-0.258,0.255h-0.578c-0.031,0.344-0.177,0.63-0.422,0.85
		c-0.391,0.348-0.963,0.457-1.433,0.479l1.676,1.938c0.091,0.107,0.079,0.268-0.028,0.359c-0.047,0.042-0.105,0.062-0.167,0.062
		c-0.073,0-0.144-0.031-0.191-0.087l-2.052-2.374c-0.068-0.079-0.08-0.197-0.031-0.287c0.045-0.081,0.129-0.136,0.227-0.136
		c0.047,0.004,0.174,0.017,0.354,0.017c0.34,0,0.959-0.045,1.309-0.355c0.134-0.12,0.218-0.273,0.246-0.467h-1.98
		c-0.141,0-0.254-0.114-0.254-0.255c0-0.139,0.113-0.256,0.254-0.256h1.95c-0.108-0.412-0.405-0.613-0.671-0.661l-1.279,0.004
		c-0.141,0-0.254-0.117-0.254-0.255c0-0.142,0.113-0.255,0.254-0.255h3.072c0.14,0,0.258,0.113,0.258,0.255
		c0,0.138-0.118,0.255-0.258,0.255h-0.891c0.142,0.186,0.24,0.408,0.287,0.657h0.604C33.632,26.901,33.75,27.019,33.75,27.157z"/>
</g>
</svg>
