<?xml version="1.0" encoding="utf-8"?>
<!-- Generator: Adobe Illustrator 16.0.0, SVG Export Plug-In . SVG Version: 6.00 Build 0)  -->
<!DOCTYPE svg PUBLIC "-//W3C//DTD SVG 1.0//EN" "http://www.w3.org/TR/2001/REC-SVG-20010904/DTD/svg10.dtd">
<svg version="1.0" id="Layer_1" xmlns="http://www.w3.org/2000/svg" xmlns:xlink="http://www.w3.org/1999/xlink" x="0px" y="0px"
	 width="62.203px" height="62.204px" viewBox="0 0 62.203 62.204" enable-background="new 0 0 62.203 62.204" xml:space="preserve">
<g>
	<g>
		<path fill="#004CD2" d="M36.295,28.084H25.659c-0.236,0-0.426,0.191-0.426,0.426c0,0.236,0.189,0.426,0.426,0.426h10.636
			c0.234,0,0.424-0.19,0.424-0.426C36.719,28.276,36.529,28.084,36.295,28.084z"/>
		<path fill="#004CD2" d="M25.659,25.533h4.253c0.236,0,0.426-0.191,0.426-0.426s-0.189-0.426-0.426-0.426h-4.253
			c-0.236,0-0.426,0.191-0.426,0.426S25.423,25.533,25.659,25.533z"/>
		<path fill="#004CD2" d="M36.719,31.915c0-0.235-0.189-0.426-0.424-0.426H25.659c-0.236,0-0.426,0.191-0.426,0.426
			c0,0.234,0.189,0.425,0.426,0.425h10.636C36.529,32.34,36.719,32.149,36.719,31.915z"/>
		<path fill="#004CD2" d="M33.316,35.318c0-0.235-0.189-0.425-0.426-0.425h-7.231c-0.236,0-0.426,0.19-0.426,0.425
			s0.189,0.425,0.426,0.425h7.231C33.127,35.743,33.316,35.553,33.316,35.318z"/>
		<path fill="#004CD2" d="M25.659,38.297c-0.236,0-0.426,0.19-0.426,0.425c0,0.235,0.189,0.426,0.426,0.426h5.954
			c0.236,0,0.426-0.191,0.426-0.426c0-0.234-0.189-0.425-0.426-0.425H25.659z"/>
		<path fill="#004CD2" d="M21.83,19.576h12.336v5.957h5.959v6.381h0.851v-6.984l-6.206-6.206H20.979v25.527h15.74v-0.851H21.83
			V19.576L21.83,19.576z M35.018,20.177l4.505,4.504h-4.505V20.177z"/>
		<path fill="#004CD2" d="M45.973,43.523l-2.541-2.65c0.744-0.817,1.198-1.898,1.198-3.086c0-2.533-2.06-4.593-4.595-4.593
			c-2.531,0-4.592,2.061-4.592,4.593c0,2.533,2.061,4.593,4.592,4.593c1.035,0,1.999-0.354,2.77-0.935l2.551,2.668
			c0.082,0.091,0.189,0.127,0.309,0.127c0.1,0,0.209-0.036,0.289-0.109C46.127,43.968,46.137,43.695,45.973,43.523z M40.035,41.526
			c-2.06,0-3.738-1.68-3.738-3.74c0-2.07,1.679-3.749,3.738-3.749c2.062,0,3.741,1.679,3.741,3.749
			C43.776,39.847,42.097,41.526,40.035,41.526z"/>
		<path fill="#FFD712" d="M43.776,37.787c0,2.06-1.68,3.74-3.741,3.74c-2.06,0-3.738-1.68-3.738-3.74
			c0-2.07,1.679-3.749,3.738-3.749C42.097,34.038,43.776,35.717,43.776,37.787z"/>
	</g>
</g>
</svg>
