<?xml version="1.0" encoding="utf-8"?>
<!-- Generator: Adobe Illustrator 16.0.0, SVG Export Plug-In . SVG Version: 6.00 Build 0)  -->
<!DOCTYPE svg PUBLIC "-//W3C//DTD SVG 1.0//EN" "http://www.w3.org/TR/2001/REC-SVG-20010904/DTD/svg10.dtd">
<svg version="1.0" id="Layer_1" xmlns="http://www.w3.org/2000/svg" xmlns:xlink="http://www.w3.org/1999/xlink" x="0px" y="0px"
	 width="45px" height="45px" viewBox="0 0 200 200" enable-background="new 0 0 200 200" xml:space="preserve">
<g>
	<g>
		<g>
			<g>
				<g>
					
						<path fill="none" stroke="#004CD2" stroke-width="2" stroke-linecap="round" stroke-linejoin="round" stroke-miterlimit="10" d="
						M123.811,50.152H79.362c-3.704,0-6.734,3.026-6.734,6.732v86.227c0,3.706,3.03,6.736,6.734,6.736h44.448
						c3.7,0,6.734-3.023,6.734-6.735V56.885C130.545,53.179,127.511,50.152,123.811,50.152z M101.585,146.48
						c-1.86,0-3.365-1.508-3.365-3.369c0-1.865,1.505-3.366,3.365-3.366c1.862,0,3.367,1.501,3.367,3.366
						C104.952,144.973,103.447,146.48,101.585,146.48z M125.858,137.386H77.313V60.831h48.545V137.386z"/>
				</g>
			</g>
		</g>
	</g>
	<g>
		<path fill="#FCDB17" d="M114.55,96.004L93.464,83.951c-0.363-0.208-0.769-0.312-1.173-0.312c-0.009,0-0.017,0.002-0.024,0.002
			c-0.055,0-0.108,0.003-0.162,0.007c-0.025,0.002-0.049,0.005-0.074,0.008c-0.042,0.005-0.084,0.011-0.126,0.018
			c-0.016,0.002-0.031,0.003-0.046,0.006l0.001,0.001c-0.263,0.049-0.519,0.141-0.758,0.28c-0.729,0.423-1.179,1.202-1.179,2.046
			v24.105c0,0.844,0.449,1.624,1.179,2.048c0.238,0.138,0.495,0.23,0.757,0.279v0.001c0.014,0.003,0.028,0.003,0.041,0.005
			c0.045,0.009,0.091,0.015,0.137,0.02c0.022,0.002,0.045,0.005,0.067,0.006c0.054,0.005,0.107,0.007,0.16,0.008
			c0.01,0.001,0.019,0.001,0.027,0.001c0.404,0,0.81-0.103,1.173-0.311l21.086-12.053c0.737-0.422,1.192-1.206,1.192-2.055v-0.003
			C115.742,97.21,115.287,96.426,114.55,96.004L114.55,96.004z M106.211,93.61l-2.096,2.75l-5.335-6.998L106.211,93.61z
			 M113.527,98.327l-14.747,8.43l9.234-12.113l5.512,3.151c0.097,0.055,0.155,0.156,0.155,0.266
			C113.682,98.171,113.623,98.273,113.527,98.327L113.527,98.327z M113.527,98.327"/>
	</g>
	<path fill="#004CD2" d="M94.474,55.004h14.222c0.448,0,0.816,0.366,0.816,0.818c0,0.45-0.368,0.813-0.816,0.813H94.474
		c-0.448,0-0.813-0.363-0.813-0.813C93.66,55.37,94.025,55.004,94.474,55.004z"/>
</g>
</svg>
