<?xml version="1.0" encoding="utf-8"?>
<!-- Generator: Adobe Illustrator 16.0.0, SVG Export Plug-In . SVG Version: 6.00 Build 0)  -->
<!DOCTYPE svg PUBLIC "-//W3C//DTD SVG 1.1//EN" "http://www.w3.org/Graphics/SVG/1.1/DTD/svg11.dtd">
<svg version="1.1" id="Layer_1" xmlns="http://www.w3.org/2000/svg" xmlns:xlink="http://www.w3.org/1999/xlink" x="0px" y="0px"
	 width="11.796px" height="11.259px" viewBox="0 0 11.796 11.259" enable-background="new 0 0 11.796 11.259" xml:space="preserve">
<path fill="#FDA700" d="M11.78,4.258c-0.04-0.117-0.143-0.201-0.266-0.222L7.836,3.511L6.183,0.182C6.125,0.072,6.013,0,5.888,0
	C5.765,0,5.65,0.07,5.595,0.184L3.96,3.521L0.28,4.066C0.156,4.086,0.056,4.17,0.017,4.291c-0.04,0.115-0.004,0.246,0.084,0.335
	L2.77,7.212l-0.62,3.666c-0.019,0.124,0.029,0.248,0.133,0.319c0.055,0.041,0.123,0.062,0.191,0.062
	c0.053,0,0.104-0.011,0.151-0.037l3.287-1.739l3.294,1.723c0.047,0.024,0.1,0.035,0.148,0.035c0.18,0,0.328-0.147,0.328-0.324
	c0-0.027-0.004-0.053-0.011-0.076L9.038,7.197l2.654-2.603C11.786,4.508,11.817,4.378,11.78,4.258L11.78,4.258z M8.461,6.851"/>
</svg>
