<?xml version="1.0" encoding="utf-8"?>
<!-- Generator: Adobe Illustrator 16.0.0, SVG Export Plug-In . SVG Version: 6.00 Build 0)  -->
<!DOCTYPE svg PUBLIC "-//W3C//DTD SVG 1.0//EN" "http://www.w3.org/TR/2001/REC-SVG-20010904/DTD/svg10.dtd">
<svg version="1.0" id="Layer_1" xmlns="http://www.w3.org/2000/svg" xmlns:xlink="http://www.w3.org/1999/xlink" x="0px" y="0px"
	 width="60.756px" height="60.752px" viewBox="0 0 60.756 60.752" enable-background="new 0 0 60.756 60.752" xml:space="preserve">
<g>
	<g>
		<polygon fill="#FFD611" points="28.111,28.301 29.075,29.996 30.366,29.148 31.647,29.996 32.522,28.301 31.433,27.783 
			30.366,28.979 29.2,27.909 		"/>
		<g>
			<g>
				<g>
					
						<path fill="#004CD2" stroke="#2C53A0" stroke-width="0.1299" stroke-linecap="round" stroke-linejoin="round" stroke-miterlimit="10" d="
						M30.634,35.455h-1.945c-0.126,0-0.229,0.102-0.229,0.229c0,0.125,0.103,0.229,0.229,0.229h6.115
						c0.322,0,0.584-0.262,0.584-0.584v-2.152c0-0.127-0.102-0.229-0.229-0.229s-0.229,0.102-0.229,0.229v2.152
						c0,0.068-0.057,0.127-0.127,0.127h-1.23v-4.508c0-0.127-0.102-0.229-0.229-0.229s-0.229,0.102-0.229,0.229v4.508h-2.479
						 M30.954,30.008c0.103,0.072,0.182,0.142,0.328,0.142c0.15,0,0.29-0.084,0.359-0.223l0,0l0.722-1.447l1.644,0.637
						c0.061,0.028,0.924,0.416,0.924,1.444v3.037c0,0.125,0.102,0.229,0.229,0.229s0.229-0.102,0.229-0.229v-3.037
						c0-1.354-1.158-1.846-1.208-1.867h-0.003l-2.738-1.061V26.99c0.436-0.338,0.736-0.838,0.812-1.41
						c0.217-0.016,0.418-0.096,0.582-0.239c0.214-0.183,0.338-0.451,0.338-0.734c0-0.236-0.086-0.461-0.236-0.637v-0.848
						c0-1.562-1.273-2.836-2.837-2.836s-2.837,1.274-2.837,2.836v0.872c-0.152,0.173-0.236,0.386-0.236,0.613
						c0,0.283,0.123,0.551,0.338,0.734c0.164,0.143,0.365,0.223,0.582,0.239c0.076,0.583,0.387,1.102,0.857,1.446v0.607
						l-2.732,1.061h-0.005c-0.05,0.021-1.208,0.513-1.208,1.867v4.767c0,0.322,0.262,0.584,0.584,0.584h2.181
						c0.126,0,0.229-0.103,0.229-0.229c0-0.127-0.104-0.229-0.229-0.229h-0.492v-4.508c0-0.127-0.103-0.229-0.229-0.229
						c-0.126,0-0.229,0.102-0.229,0.229v4.508h-1.23c-0.069,0-0.127-0.057-0.127-0.127v-4.767c0-1.032,0.87-1.42,0.924-1.444
						l1.643-0.637l0.723,1.447c0.068,0.139,0.209,0.223,0.357,0.223c0.146,0,0.225-0.068,0.328-0.142l0.834-0.639L30.954,30.008z
						 M31.935,28.314l-0.673,1.35c-0.017-0.012-0.374-0.266-0.81-0.574c0.189-0.234-0.032,0.039,0.831-1.027L31.935,28.314z
						 M29.26,27.707v-0.429c0.278,0.113,0.575,0.164,0.866,0.164c0.299,0,0.594-0.062,0.855-0.178v0.445l-0.859,1.061L29.26,27.707z
						 M32.712,24.607c0,0.148-0.064,0.291-0.178,0.389c-0.074,0.065-0.165,0.105-0.264,0.121v-1.021
						C32.533,24.139,32.712,24.357,32.712,24.607z M27.925,25.117c-0.266-0.042-0.441-0.264-0.441-0.51
						c0-0.245,0.202-0.445,0.441-0.5V25.117z M27.938,23.641c-0.073,0.008-0.157,0.027-0.219,0.049v-0.566
						c0-1.311,1.067-2.379,2.379-2.379s2.378,1.068,2.378,2.379v0.551c-0.065-0.02-0.135-0.033-0.205-0.039
						c0-0.221,0.002-0.178-0.721-0.955c-0.133-0.143-0.353-0.171-0.52-0.064c-0.799,0.521-1.771,0.783-2.668,0.719
						C28.165,23.32,27.985,23.449,27.938,23.641z M28.383,25.297v-1.428v-0.073c0.988,0.056,2.024-0.237,2.86-0.772
						c0.332,0.356,0.512,0.541,0.569,0.613c0,0.18,0,1.455,0,1.66c0,0.93-0.758,1.688-1.687,1.688
						C29.081,26.984,28.383,26.174,28.383,25.297z M28.981,29.664l-0.673-1.35l0.649-0.25l0.832,1.025
						C29.367,29.391,29.02,29.637,28.981,29.664z M30.122,35.341"/>
				</g>
			</g>
		</g>
	</g>
	<path fill="#004CD2" d="M41.032,45.148h-18.6c-0.251,0-0.455-0.202-0.455-0.455c0-0.25,0.204-0.454,0.455-0.454h18.145V16.51
		h-20.91v28.184c0,0.252-0.203,0.455-0.455,0.455c-0.25,0-0.453-0.202-0.453-0.455V16.057c0-0.252,0.203-0.455,0.453-0.455h21.82
		c0.252,0,0.453,0.203,0.453,0.455v28.637C41.485,44.946,41.284,45.148,41.032,45.148z"/>
</g>
<path fill="none" stroke="#004CD2" stroke-width="0.5" stroke-linecap="round" stroke-linejoin="round" stroke-miterlimit="10" d="
	M22.205,41.035c0.513,0.068,0.692-0.876,1.175-1.08c0.904-0.371,1.025,0.912,1.719,1.283c0.512,0.27,1.092-0.509,1.717-0.502
	c1.565,0.018,2.08,1.076,3.406,0.84"/>
<path fill="#FFD611" d="M47.454,27.053c0.01-0.018,0.024-0.031,0.033-0.049c0.029-0.064,0.049-0.131,0.049-0.205
	c0-0.074-0.02-0.143-0.049-0.205c-0.009-0.018-0.023-0.033-0.033-0.049c-0.027-0.043-0.057-0.082-0.096-0.113
	c-0.008-0.008-0.012-0.018-0.02-0.023l-4.037-2.977c-0.216-0.16-0.52-0.113-0.678,0.102c-0.159,0.215-0.113,0.52,0.102,0.678
	l2.851,2.101h-8.037c-0.268,0-0.485,0.219-0.485,0.486s0.218,0.484,0.485,0.484h8.037l-2.851,2.102
	c-0.215,0.16-0.261,0.463-0.102,0.68c0.096,0.129,0.242,0.197,0.391,0.197c0.1,0,0.201-0.031,0.287-0.096l4.037-2.977
	c0.008-0.008,0.012-0.018,0.02-0.023C47.397,27.133,47.427,27.096,47.454,27.053z"/>
</svg>
